<svg xmlns="http://www.w3.org/2000/svg" xmlns:xlink="http://www.w3.org/1999/xlink" viewBox="0 0 926.72 701.28"><defs><style>.cls-1{fill:none;}.cls-2{clip-path:url(#clip-path);}.cls-3{fill:#d5612c;}.cls-3,.cls-4,.cls-5,.cls-6{fill-rule:evenodd;}.cls-4{fill:#192541;}.cls-5{fill:#ffc94a;}.cls-6{fill:#2d9cdb;}.cls-7{fill:#fff;}</style><clipPath id="clip-path" transform="translate(-4.44 2.23)"><rect id="Shape" class="cls-1" width="935.49" height="702.21"/></clipPath></defs><g id="Layer_2" data-name="Layer 2"><g id="Layer_1-2" data-name="Layer 1"><g id="Aare"><g class="cls-2"><g id="Patterns"><g id="Aare-2" data-name="Aare"><g id="Shape-2" data-name="Shape"><path class="cls-3" d="M907,276.73a20.12,20.12,0,1,0-20.12,20.12A20.12,20.12,0,0,0,907,276.73Zm-20.12-44.29a44.29,44.29,0,1,1-44.27,44.29A44.28,44.28,0,0,1,886.89,232.44Z" transform="translate(-4.44 2.23)"/><path class="cls-4" d="M886,288.61a12.06,12.06,0,1,1,12.06-12.06A12.06,12.06,0,0,1,886,288.61Z" transform="translate(-4.44 2.23)"/><path class="cls-5" d="M146.72,687a12.06,12.06,0,0,1,12.06-12.06h72.34a12.06,12.06,0,1,1,0,24.12H158.78A12.06,12.06,0,0,1,146.72,687Z" transform="translate(-4.44 2.23)"/><path class="cls-6" d="M267.3,386a44.25,44.25,0,0,1-44.22,44.28H142.7a44.29,44.29,0,0,1,0-88.57h80.38A44.26,44.26,0,0,1,267.3,386Zm-44.22,20.12a20.13,20.13,0,0,0,0-40.25H142.7a20.13,20.13,0,0,0,0,40.25Z" transform="translate(-4.44 2.23)"/><path class="cls-6" d="M53,635.29a12.06,12.06,0,0,0,12.06,12.06h37.39a44.12,44.12,0,0,0,32.17-13.87,44.09,44.09,0,0,0,32.16,13.87h37A44.22,44.22,0,0,0,248,603.13a12.06,12.06,0,1,0-24.12,0,20.1,20.1,0,0,1-20.1,20.1h-37a20.1,20.1,0,0,1-20.1-20.1V521.91a43.42,43.42,0,0,0-43.42-43.42v24.13a19.3,19.3,0,0,1,19.3,19.29v81.22a20.1,20.1,0,0,1-20.11,20.1H65.07A12.06,12.06,0,0,0,53,635.29Z" transform="translate(-4.44 2.23)"/><path class="cls-7" d="M209.59,538.08A20.13,20.13,0,1,0,189.47,518a12.08,12.08,0,1,1-24.15,0,44.27,44.27,0,1,1,44.27,44.28,12.08,12.08,0,0,1,0-24.15Z" transform="translate(-4.44 2.23)"/><path class="cls-7" d="M181.21,374.08a26.54,26.54,0,1,0-20.44-43.68,12.08,12.08,0,0,1-18.39-15.66,50.82,50.82,0,1,1,38.83,83.46,12.06,12.06,0,1,1,0-24.12Z" transform="translate(-4.44 2.23)"/><path class="cls-4" d="M373,63.7a20.1,20.1,0,1,0-28.46,0,12.06,12.06,0,1,1-17.07,17,44.22,44.22,0,1,1,62.61,0A12.06,12.06,0,1,1,373,63.7Z" transform="translate(-4.44 2.23)"/><path class="cls-3" d="M328,64a12.06,12.06,0,1,1,0,17A12.05,12.05,0,0,1,328,64Z" transform="translate(-4.44 2.23)"/><path class="cls-3" d="M103.31,502.62a12.07,12.07,0,1,1,12.06-12.07A12.06,12.06,0,0,1,103.31,502.62Z" transform="translate(-4.44 2.23)"/><path class="cls-5" d="M68.83,541.38a20.13,20.13,0,1,0-20.12,20.13A20.12,20.12,0,0,0,68.83,541.38ZM48.71,497.1A44.29,44.29,0,1,1,4.44,541.38,44.28,44.28,0,0,1,48.71,497.1Z" transform="translate(-4.44 2.23)"/><path class="cls-7" d="M85.74,437.51a24.9,24.9,0,0,0-24.86,24.95v46.69a12,12,0,1,1-24.06,0V462.46a49,49,0,0,1,48.92-49.1Z" transform="translate(-4.44 2.23)"/><path class="cls-3" d="M48.88,521.22a12.06,12.06,0,1,1,12.06-12.06A12.06,12.06,0,0,1,48.88,521.22Z" transform="translate(-4.44 2.23)"/><path class="cls-3" d="M48.53,553.27a12.06,12.06,0,1,1,12.06-12.06A12.05,12.05,0,0,1,48.53,553.27Z" transform="translate(-4.44 2.23)"/><path class="cls-5" d="M51,312.36a20.13,20.13,0,1,0-.52-40.25A12.08,12.08,0,1,1,50.13,248a44.28,44.28,0,1,1,1.16,88.56A12.08,12.08,0,1,1,51,312.36Z" transform="translate(-4.44 2.23)"/><path class="cls-5" d="M109.71,398.91a20.12,20.12,0,1,0,0,40.23,79.7,79.7,0,0,1,79.73,79.66,12.08,12.08,0,0,1-24.16,0,55.55,55.55,0,0,0-55.57-55.52,44.26,44.26,0,1,1,0-88.51,12.07,12.07,0,1,1,0,24.14Z" transform="translate(-4.44 2.23)"/><path class="cls-4" d="M288.28,603.27a20.12,20.12,0,0,0-40.24,0,12.08,12.08,0,0,1-24.15,0,44.27,44.27,0,0,1,88.54,0,12.08,12.08,0,0,1-24.15,0Z" transform="translate(-4.44 2.23)"/><path class="cls-7" d="M267.3,388.55A55.47,55.47,0,0,0,322.76,444a12.06,12.06,0,0,1,0,24.12,79.59,79.59,0,0,1-79.58-79.6,12.06,12.06,0,1,1,24.12,0Z" transform="translate(-4.44 2.23)"/><path class="cls-5" d="M512.91,27.79a80.56,80.56,0,0,0-80.55,80.57,12.08,12.08,0,1,1-24.16,0A104.73,104.73,0,0,1,512.91,3.62a12.09,12.09,0,0,1,0,24.17Z" transform="translate(-4.44 2.23)"/><path class="cls-6" d="M628,102.17a74,74,0,0,0-74-74,12.08,12.08,0,0,1,0-24.15,98.18,98.18,0,0,1,98.17,98.2,12.07,12.07,0,0,1-24.14,0Z" transform="translate(-4.44 2.23)"/><path class="cls-5" d="M251.45,331.35a57.89,57.89,0,0,0-57.88-57.9,12.06,12.06,0,0,1,0-24.12,82,82,0,0,1,82,82,12.06,12.06,0,1,1-24.11,0Z" transform="translate(-4.44 2.23)"/><path class="cls-3" d="M38.89,324.61a12.06,12.06,0,1,1,12.21,11.9A12.06,12.06,0,0,1,38.89,324.61Z" transform="translate(-4.44 2.23)"/><path class="cls-3" d="M177.38,530.87a12.06,12.06,0,1,1,12.06-12.06A12.06,12.06,0,0,1,177.38,530.87Z" transform="translate(-4.44 2.23)"/><path class="cls-3" d="M236,615.3A12.06,12.06,0,1,1,248,603.24,12.06,12.06,0,0,1,236,615.3Z" transform="translate(-4.44 2.23)"/><path class="cls-3" d="M64.73,647.35a12.06,12.06,0,1,1,12-12.06A12.06,12.06,0,0,1,64.73,647.35Z" transform="translate(-4.44 2.23)"/><path class="cls-4" d="M177.38,562.92a12.06,12.06,0,1,1,12.06-12.06A12.06,12.06,0,0,1,177.38,562.92Z" transform="translate(-4.44 2.23)"/><path class="cls-4" d="M177.38,595.31a12.06,12.06,0,1,1,12.06-12.06A12.06,12.06,0,0,1,177.38,595.31Z" transform="translate(-4.44 2.23)"/><path class="cls-3" d="M268.33,619.44a12.07,12.07,0,1,1,12.06-12.06A12.06,12.06,0,0,1,268.33,619.44Z" transform="translate(-4.44 2.23)"/><path class="cls-3" d="M268.33,651.49a12.07,12.07,0,1,1,12.06-12.07A12.06,12.06,0,0,1,268.33,651.49Z" transform="translate(-4.44 2.23)"/><path class="cls-3" d="M255.24,400.61a12.06,12.06,0,1,1,12.06-12.06A12.06,12.06,0,0,1,255.24,400.61Z" transform="translate(-4.44 2.23)"/><path class="cls-3" d="M110.55,398.89a12.06,12.06,0,1,1,12-12.06A12.06,12.06,0,0,1,110.55,398.89Z" transform="translate(-4.44 2.23)"/><path class="cls-5" d="M342.37,384.59a20.13,20.13,0,1,0-20.13,20.13A20.13,20.13,0,0,0,342.37,384.59Zm-20.13-44.28A44.28,44.28,0,1,1,278,384.59,44.27,44.27,0,0,1,322.24,340.31Z" transform="translate(-4.44 2.23)"/><path class="cls-6" d="M376.16,143.19a12.07,12.07,0,0,0,12.08,12.06,20.11,20.11,0,0,1,20.12,20.1v80.41a20.11,20.11,0,0,1-20.12,20.1,12.07,12.07,0,1,0,0,24.13,44.2,44.2,0,0,0,32.2-13.87A44.17,44.17,0,0,0,452.64,300h37a44.25,44.25,0,0,0,44.27-44.23,12.08,12.08,0,0,0-24.15,0,20.11,20.11,0,0,1-20.12,20.1h-37a20.11,20.11,0,0,1-20.13-20.1V175.35a44.25,44.25,0,0,0-44.27-44.22A12.07,12.07,0,0,0,376.16,143.19Z" transform="translate(-4.44 2.23)"/><path class="cls-7" d="M400.28,288a12.07,12.07,0,0,0-12.08-12.06,20.12,20.12,0,0,1-20.12-20.12V175.38a20.12,20.12,0,0,1,20.12-20.12,12.07,12.07,0,1,0,0-24.13,44.25,44.25,0,0,0-44.26,44.25v80.44c0,1,0,2,.09,2.95a49.09,49.09,0,0,0-34.7,46.93v46.66a12.07,12.07,0,0,0,24.14,0V305.7a25,25,0,0,1,18.71-24.15,44.22,44.22,0,0,0,36,18.52A12.07,12.07,0,0,0,400.28,288Z" transform="translate(-4.44 2.23)"/><path class="cls-4" d="M388.05,300a20.13,20.13,0,1,0,20.12,20.13,12.07,12.07,0,1,1,24.14,0,44.27,44.27,0,1,1-44.26-44.29,12.08,12.08,0,0,1,0,24.16Z" transform="translate(-4.44 2.23)"/><path class="cls-7" d="M678.67,381.14a20.12,20.12,0,1,1,20.12,20.13,12.08,12.08,0,0,0,0,24.15,44.28,44.28,0,1,0-44.27-44.28,12.08,12.08,0,1,0,24.15,0Z" transform="translate(-4.44 2.23)"/><path class="cls-3" d="M388.22,300a12.07,12.07,0,1,1,12.06-12.06A12.06,12.06,0,0,1,388.22,300Z" transform="translate(-4.44 2.23)"/><path class="cls-3" d="M388.22,155.25a12.06,12.06,0,1,1,12.06-12.06A12.06,12.06,0,0,1,388.22,155.25Z" transform="translate(-4.44 2.23)"/><path class="cls-3" d="M321.38,364.43a12.06,12.06,0,1,1,12.06-12.06A12.05,12.05,0,0,1,321.38,364.43Z" transform="translate(-4.44 2.23)"/><path class="cls-4" d="M322.07,396.48a12.07,12.07,0,1,1,12.06-12.06A12.06,12.06,0,0,1,322.07,396.48Z" transform="translate(-4.44 2.23)"/><path class="cls-6" d="M828.4,277.44a44.28,44.28,0,0,1-44.28,44.26h-80.5a44.26,44.26,0,1,1,0-88.51h25.76V207.84a44.26,44.26,0,0,1,44.28-44.25h80.5a20.12,20.12,0,0,0,20.12-20.12v-37a20.11,20.11,0,0,0-20.12-20.11,12.07,12.07,0,1,1,0-24.14,44.26,44.26,0,0,1,44.27,44.25v37a44.13,44.13,0,0,1-13.88,32.19,44.11,44.11,0,0,1,13.88,32.18v36.21a12.08,12.08,0,0,1-24.15,0V207.84a20.11,20.11,0,0,0-20.12-20.11h-80.5a20.12,20.12,0,0,0-20.13,20.11v25.35h30.59A44.27,44.27,0,0,1,828.4,277.44ZM703.62,257.33a20.12,20.12,0,1,0,0,40.23h80.5a20.12,20.12,0,1,0,0-40.23Z" transform="translate(-4.44 2.23)"/><path class="cls-5" d="M647.68,161.54a26.52,26.52,0,1,0-2.4-48.11A12.06,12.06,0,1,1,634.18,92a50.77,50.77,0,1,1,4.39,91.84,12.05,12.05,0,1,1,9.11-22.32Z" transform="translate(-4.44 2.23)"/><path class="cls-5" d="M828.15,280a55.47,55.47,0,0,0,55.47,55.48,12.06,12.06,0,0,1,0,24.12A79.59,79.59,0,0,1,804,280a12.06,12.06,0,1,1,24.11,0Z" transform="translate(-4.44 2.23)"/><path class="cls-3" d="M816.1,291.37a12.06,12.06,0,1,1,12-12.06A12.06,12.06,0,0,1,816.1,291.37Z" transform="translate(-4.44 2.23)"/><path class="cls-5" d="M376.13,231.43a20.13,20.13,0,0,0-40.25,0,12.07,12.07,0,0,1-24.14,0,44.27,44.27,0,0,1,88.54,0,12.08,12.08,0,0,1-24.15,0Z" transform="translate(-4.44 2.23)"/><path class="cls-4" d="M574.22,256.59a20.12,20.12,0,0,0-40.24,0,12.08,12.08,0,0,1-24.15,0,44.27,44.27,0,0,1,88.54,0,12.08,12.08,0,0,1-24.15,0Z" transform="translate(-4.44 2.23)"/><path class="cls-7" d="M270.74,674.23a55.48,55.48,0,0,0,55.47-55.48,12.06,12.06,0,1,1,24.11,0,79.59,79.59,0,0,1-79.58,79.6,12.06,12.06,0,0,1,0-24.12Z" transform="translate(-4.44 2.23)"/><path class="cls-6" d="M393.05,389.21a64.39,64.39,0,0,0,64.39-64.4,12.07,12.07,0,1,1,24.14,0,88.53,88.53,0,0,1-88.53,88.55,12.08,12.08,0,0,1,0-24.15Z" transform="translate(-4.44 2.23)"/><path class="cls-3" d="M388.22,243.47a12.06,12.06,0,1,1,12.06-12.06A12.06,12.06,0,0,1,388.22,243.47Z" transform="translate(-4.44 2.23)"/><path class="cls-3" d="M472.62,167.31a12.06,12.06,0,1,1,12.06-12.06A12.06,12.06,0,0,1,472.62,167.31Z" transform="translate(-4.44 2.23)"/><path class="cls-3" d="M655.9,414.05A12.06,12.06,0,1,0,668,402,12.06,12.06,0,0,0,655.9,414.05Z" transform="translate(-4.44 2.23)"/><path class="cls-3" d="M623.86,414.05A12.06,12.06,0,1,0,635.92,402,12.06,12.06,0,0,0,623.86,414.05Z" transform="translate(-4.44 2.23)"/><path class="cls-6" d="M860.36,698.35a44.24,44.24,0,0,1-44.26-44.22V573.72a44.27,44.27,0,0,1,88.53,0v80.41A44.24,44.24,0,0,1,860.36,698.35Zm20.13-44.22V573.72a20.13,20.13,0,0,0-40.25,0v80.41a20.13,20.13,0,0,0,40.25,0Z" transform="translate(-4.44 2.23)"/><path class="cls-7" d="M872.66,541.57A44.25,44.25,0,0,1,917,497.41a12,12,0,1,0,0-24.09,68.39,68.39,0,0,0-68.52,68.25,12.09,12.09,0,0,0,24.18,0Z" transform="translate(-4.44 2.23)"/><path class="cls-3" d="M872.59,541.56a12.06,12.06,0,1,0-12.05,12.06A12.06,12.06,0,0,0,872.59,541.56Z" transform="translate(-4.44 2.23)"/><path class="cls-5" d="M752.53,633.94a20.13,20.13,0,1,0,20.13,20.13A20.12,20.12,0,0,0,752.53,633.94Zm-44.26,20.13a44.27,44.27,0,1,1,44.26,44.28A44.26,44.26,0,0,1,708.27,654.07Z" transform="translate(-4.44 2.23)"/><path class="cls-7" d="M511.21,576a12.08,12.08,0,0,1,12.07,12.09,20.12,20.12,0,0,0,20.1,20.15h80.43a20.12,20.12,0,0,0,20.1-20.15,12.07,12.07,0,1,1,24.13,0,44.32,44.32,0,0,1-18.44,36,24.62,24.62,0,0,0,24.07,18h46.65a12.09,12.09,0,0,1,0,24.18H673.67a48.86,48.86,0,0,1-46.83-34c-1,.07-2,.11-3,.11H543.38a44.28,44.28,0,0,1-44.23-44.34A12.07,12.07,0,0,1,511.21,576Z" transform="translate(-4.44 2.23)"/><path class="cls-6" d="M412.16,432a44.25,44.25,0,0,1,44.27,44.23v80.4a44.27,44.27,0,0,1-88.54,0V476.2A44.25,44.25,0,0,1,412.16,432Zm20.12,44.23a20.12,20.12,0,0,0-40.24,0v80.4a20.12,20.12,0,0,0,40.24,0Z" transform="translate(-4.44 2.23)"/><path class="cls-6" d="M511.21,600.14a12.06,12.06,0,0,0,12.05-12.08,20.11,20.11,0,0,1,20.1-20.13h80.39a20.11,20.11,0,0,1,20.09,20.13,12.06,12.06,0,1,0,24.12,0,44.21,44.21,0,0,0-13.87-32.21A44.19,44.19,0,0,0,668,523.64v-37a44.25,44.25,0,0,0-44.21-44.29,12.08,12.08,0,0,0,0,24.16,20.11,20.11,0,0,1,20.09,20.13v37a20.11,20.11,0,0,1-20.09,20.13H543.36a44.25,44.25,0,0,0-44.21,44.29A12.07,12.07,0,0,0,511.21,600.14Z" transform="translate(-4.44 2.23)"/><path class="cls-4" d="M668,587.91a20.12,20.12,0,1,0,20.12-20.13,12.08,12.08,0,0,1,0-24.16,44.29,44.29,0,1,1-44.27,44.29,12.08,12.08,0,1,1,24.15,0Z" transform="translate(-4.44 2.23)"/><path class="cls-4" d="M565.26,489a20.12,20.12,0,1,0-20.12,20.13,12.08,12.08,0,0,1,0,24.16A44.29,44.29,0,1,1,589.41,489a12.08,12.08,0,1,1-24.15,0Z" transform="translate(-4.44 2.23)"/><path class="cls-3" d="M400.28,554.27a26.53,26.53,0,1,0-43.67,20.45A12.07,12.07,0,0,1,341,593.11a50.82,50.82,0,1,1,83.43-38.84,12.06,12.06,0,1,1-24.11,0Z" transform="translate(-4.44 2.23)"/><path class="cls-3" d="M668,587.73a12.06,12.06,0,1,1-12.06-12.06A12.06,12.06,0,0,1,668,587.73Z" transform="translate(-4.44 2.23)"/><path class="cls-3" d="M523.26,588.08A12.06,12.06,0,1,1,511.21,576,12.05,12.05,0,0,1,523.26,588.08Z" transform="translate(-4.44 2.23)"/><path class="cls-3" d="M732.38,654.24a12.06,12.06,0,1,1-12.06-12.06A12.06,12.06,0,0,1,732.38,654.24Z" transform="translate(-4.44 2.23)"/><path class="cls-3" d="M764.76,653.9a12.06,12.06,0,1,1-12-12.06A12.05,12.05,0,0,1,764.76,653.9Z" transform="translate(-4.44 2.23)"/><path class="cls-5" d="M599.77,600.17a20.13,20.13,0,0,0,0,40.26,12.08,12.08,0,0,1,0,24.15,44.28,44.28,0,0,1,0-88.56,12.08,12.08,0,0,1,0,24.15Z" transform="translate(-4.44 2.23)"/><path class="cls-5" d="M624.53,384.42c-15.34,0-28.19,12.73-28.19,28.94s12.85,28.95,28.19,28.95a12.06,12.06,0,1,1,0,24.12c-29.13,0-52.35-24-52.35-53.07s23.22-53.07,52.35-53.07a12.07,12.07,0,1,1,0,24.13Z" transform="translate(-4.44 2.23)"/><path class="cls-5" d="M545,533.33a55.55,55.55,0,0,0-55.51,55.59,44.25,44.25,0,1,1-88.49,0,12.07,12.07,0,1,1,24.14,0,20.11,20.11,0,1,0,40.22,0A79.7,79.7,0,0,1,545,509.16a12.09,12.09,0,0,1,0,24.17Z" transform="translate(-4.44 2.23)"/><path class="cls-7" d="M414.75,432a91.64,91.64,0,0,0,91.63-91.66,12.06,12.06,0,1,1,24.12,0A115.77,115.77,0,0,1,414.75,456.09a12.06,12.06,0,0,1,0-24.12Z" transform="translate(-4.44 2.23)"/><path class="cls-7" d="M770.25,27.11a78.14,78.14,0,0,0-78.13,78.15,12.08,12.08,0,0,1-24.16,0A102.32,102.32,0,0,1,770.25,2.93a12.09,12.09,0,0,1,0,24.18Z" transform="translate(-4.44 2.23)"/><path class="cls-3" d="M749.26,579.12a55.47,55.47,0,0,0-55.46-55.48,12.07,12.07,0,0,1,0-24.13,79.59,79.59,0,0,1,79.58,79.61,12.06,12.06,0,1,1-24.12,0Z" transform="translate(-4.44 2.23)"/><path class="cls-6" d="M29.24,618.75a55.47,55.47,0,0,0,55.47,55.48,12.06,12.06,0,1,1,0,24.12,79.59,79.59,0,0,1-79.58-79.6,12.06,12.06,0,1,1,24.11,0Z" transform="translate(-4.44 2.23)"/><path class="cls-5" d="M347.24,496.37a36.93,36.93,0,0,0-36.92,36.93,12,12,0,1,1-24.08,0,61,61,0,0,1,61-61,12,12,0,0,1,0,24.08Z" transform="translate(-4.44 2.23)"/><path class="cls-3" d="M611.8,588.08a12.06,12.06,0,1,1-12-12.06A12.06,12.06,0,0,1,611.8,588.08Z" transform="translate(-4.44 2.23)"/><path class="cls-3" d="M557.37,521.22a12.06,12.06,0,1,1-12.06-12.06A12.06,12.06,0,0,1,557.37,521.22Z" transform="translate(-4.44 2.23)"/><path class="cls-3" d="M557,422.32A12.06,12.06,0,1,1,545,410.26,12.06,12.06,0,0,1,557,422.32Z" transform="translate(-4.44 2.23)"/><path class="cls-3" d="M557,389.93A12.06,12.06,0,1,1,545,377.87,12.06,12.06,0,0,1,557,389.93Z" transform="translate(-4.44 2.23)"/><path class="cls-3" d="M533.94,256.91a12.06,12.06,0,1,1-12.05-12.06A12.05,12.05,0,0,1,533.94,256.91Z" transform="translate(-4.44 2.23)"/><path class="cls-3" d="M636.61,454.37a12.06,12.06,0,1,1-12.06-12.06A12.06,12.06,0,0,1,636.61,454.37Z" transform="translate(-4.44 2.23)"/><path class="cls-5" d="M257.82,69.76a20.13,20.13,0,1,1,20.12-20.13A20.12,20.12,0,0,1,257.82,69.76ZM213.55,49.63A44.27,44.27,0,1,0,257.82,5.35,44.27,44.27,0,0,0,213.55,49.63Z" transform="translate(-4.44 2.23)"/><path class="cls-6" d="M16.5,103.56a12.07,12.07,0,0,1,12.05,12.08,20.11,20.11,0,0,0,20.1,20.12H129a20.11,20.11,0,0,0,20.1-20.12,12.06,12.06,0,1,1,24.12,0A44.25,44.25,0,0,1,129,159.91H50.26A20.11,20.11,0,0,0,30.16,180v80.5a20.11,20.11,0,0,0,20.1,20.12,12.08,12.08,0,0,1,0,24.15A44.25,44.25,0,0,1,6,260.54V180a44.2,44.2,0,0,1,13.09-31.45A44.15,44.15,0,0,1,4.44,115.64,12.07,12.07,0,0,1,16.5,103.56Z" transform="translate(-4.44 2.23)"/><path class="cls-7" d="M132.2,71.62a49.09,49.09,0,0,1,46.72-33.88H225.6a12,12,0,1,1,0,24.07H178.92a24.93,24.93,0,0,0-24,18.06,44.07,44.07,0,0,1,18.32,35.78,12.06,12.06,0,0,1-24.12,0A20.08,20.08,0,0,0,129,95.59H48.65a20.08,20.08,0,0,0-20.1,20.06,12.06,12.06,0,0,1-24.11,0A44.17,44.17,0,0,1,48.65,71.51H129c1.07,0,2.13,0,3.17.11Z" transform="translate(-4.44 2.23)"/><path class="cls-4" d="M173.28,115.79a20.12,20.12,0,1,1,20.12,20.13,12.08,12.08,0,0,0,0,24.16,44.29,44.29,0,1,0-44.27-44.29,12.08,12.08,0,1,0,24.15,0Z" transform="translate(-4.44 2.23)"/><path class="cls-3" d="M173.25,116A12.06,12.06,0,1,0,161.19,128,12.07,12.07,0,0,0,173.25,116Z" transform="translate(-4.44 2.23)"/><path class="cls-4" d="M28.55,115.62a12.06,12.06,0,1,0-12,12.06A12.06,12.06,0,0,0,28.55,115.62Z" transform="translate(-4.44 2.23)"/><path class="cls-4" d="M161.19,189a12.06,12.06,0,1,0-12.06,12.06A12.06,12.06,0,0,0,161.19,189Z" transform="translate(-4.44 2.23)"/><path class="cls-4" d="M161.19,221.07a12.06,12.06,0,1,0-12.06,12.06A12.06,12.06,0,0,0,161.19,221.07Z" transform="translate(-4.44 2.23)"/><path class="cls-4" d="M265.92,234.86a12.06,12.06,0,1,0-12.06,12.06A12.06,12.06,0,0,0,265.92,234.86Z" transform="translate(-4.44 2.23)"/><path class="cls-4" d="M299,233.13a12.06,12.06,0,1,0-12.06,12.06A12.06,12.06,0,0,0,299,233.13Z" transform="translate(-4.44 2.23)"/><path class="cls-4" d="M299,266.9A12.06,12.06,0,1,0,286.93,279,12.06,12.06,0,0,0,299,266.9Z" transform="translate(-4.44 2.23)"/><path class="cls-4" d="M134.66,687A12.06,12.06,0,1,0,122.6,699,12.06,12.06,0,0,0,134.66,687Z" transform="translate(-4.44 2.23)"/><path class="cls-3" d="M170.83,687A12.06,12.06,0,1,0,158.78,699,12.05,12.05,0,0,0,170.83,687Z" transform="translate(-4.44 2.23)"/><path class="cls-4" d="M279.7,686.29a12.06,12.06,0,1,0-12.06,12.06A12.06,12.06,0,0,0,279.7,686.29Z" transform="translate(-4.44 2.23)"/><path class="cls-3" d="M237.67,49.8a12.06,12.06,0,1,0-12.06,12.06A12.06,12.06,0,0,0,237.67,49.8Z" transform="translate(-4.44 2.23)"/><path class="cls-3" d="M270.05,49.8A12.06,12.06,0,1,0,258,61.86,12.06,12.06,0,0,0,270.05,49.8Z" transform="translate(-4.44 2.23)"/><path class="cls-5" d="M120.91,103.53a20.13,20.13,0,0,1,0-40.26,12.08,12.08,0,0,0,0-24.15,44.28,44.28,0,0,0,0,88.56,12.08,12.08,0,0,0,0-24.15Z" transform="translate(-4.44 2.23)"/><path class="cls-3" d="M60.94,225.21a55.47,55.47,0,0,1,55.46,55.48,12.06,12.06,0,1,0,24.12,0,79.59,79.59,0,0,0-79.58-79.61,12.07,12.07,0,0,0,0,24.13Z" transform="translate(-4.44 2.23)"/><path class="cls-3" d="M63,292.75a12.06,12.06,0,1,0-12,12.06A12.05,12.05,0,0,0,63,292.75Z" transform="translate(-4.44 2.23)"/><path class="cls-4" d="M589.41,521.22a12.06,12.06,0,1,1-12.06-12.06A12.06,12.06,0,0,1,589.41,521.22Z" transform="translate(-4.44 2.23)"/><path class="cls-4" d="M621.45,521.22a12.06,12.06,0,1,1-12.06-12.06A12.06,12.06,0,0,1,621.45,521.22Z" transform="translate(-4.44 2.23)"/><path class="cls-3" d="M424.39,444A12.06,12.06,0,1,1,412.33,432,12.06,12.06,0,0,1,424.39,444Z" transform="translate(-4.44 2.23)"/><path class="cls-3" d="M425.08,588.77A12.06,12.06,0,1,1,413,576.71,12.06,12.06,0,0,1,425.08,588.77Z" transform="translate(-4.44 2.23)"/><path class="cls-5" d="M559.48,112.52a25,25,0,0,0,0,50c49.52,0,89.53,40.32,89.53,89.9a12.08,12.08,0,0,1-24.16,0c0-36.4-29.34-65.78-65.37-65.78a49.13,49.13,0,0,1,0-98.25,12.06,12.06,0,1,1,0,24.12Z" transform="translate(-4.44 2.23)"/><path class="cls-3" d="M624.55,252.46c0,36.61-29.27,66.08-65.11,66.08a12.09,12.09,0,0,0,0,24.18c49.39,0,89.23-40.53,89.23-90.26a12.06,12.06,0,1,0-24.12,0Z" transform="translate(-4.44 2.23)"/><path class="cls-4" d="M636.61,264.49a12.06,12.06,0,1,1,12.06-12.06A12.06,12.06,0,0,1,636.61,264.49Z" transform="translate(-4.44 2.23)"/><path class="cls-6" d="M472.62,179.37a12.07,12.07,0,0,1,12.06,12.08V243.8a12.06,12.06,0,1,1-24.12,0V191.45A12.07,12.07,0,0,1,472.62,179.37Z" transform="translate(-4.44 2.23)"/><path class="cls-6" d="M274.85,111.5a81.28,81.28,0,0,1-81.27,81.29,12.08,12.08,0,0,0,0,24.15A105.42,105.42,0,0,0,299,111.5a12.07,12.07,0,1,0-24.14,0Z" transform="translate(-4.44 2.23)"/><path class="cls-7" d="M672.09,137.33A12.07,12.07,0,0,1,660,149.39H557.74a12.06,12.06,0,1,1,0-24.12H660A12.07,12.07,0,0,1,672.09,137.33Z" transform="translate(-4.44 2.23)"/><path class="cls-3" d="M299,111.49a12.06,12.06,0,1,0-12.06,12.06A12.07,12.07,0,0,0,299,111.49Z" transform="translate(-4.44 2.23)"/><path class="cls-4" d="M647.89,111.4a12.06,12.06,0,1,1,0-17.06A12.05,12.05,0,0,1,647.89,111.4Z" transform="translate(-4.44 2.23)"/><path class="cls-4" d="M565.9,75.22a12.06,12.06,0,1,1,0-17.06A12.07,12.07,0,0,1,565.9,75.22Z" transform="translate(-4.44 2.23)"/><path class="cls-4" d="M4.44,372.35A12.06,12.06,0,0,1,16.5,360.29H55.08a12.07,12.07,0,0,1,0,24.13H16.5A12.07,12.07,0,0,1,4.44,372.35Z" transform="translate(-4.44 2.23)"/><path class="cls-6" d="M388.22,696.63a12.05,12.05,0,0,1-12.06-12V650.08a12.06,12.06,0,0,1,24.12,0v34.51A12.05,12.05,0,0,1,388.22,696.63Z" transform="translate(-4.44 2.23)"/><path class="cls-5" d="M446.1,687a12.06,12.06,0,0,1,12.06-12.06h95.75a12.06,12.06,0,1,1,0,24.12H458.16A12.06,12.06,0,0,1,446.1,687Z" transform="translate(-4.44 2.23)"/><path class="cls-3" d="M4.44,16A12.06,12.06,0,0,1,16.5,4H72a12.06,12.06,0,1,1,0,24.12H16.5A12.06,12.06,0,0,1,4.44,16Z" transform="translate(-4.44 2.23)"/><path class="cls-3" d="M557,699A12.06,12.06,0,1,1,569.08,687,12.06,12.06,0,0,1,557,699Z" transform="translate(-4.44 2.23)"/><path class="cls-3" d="M521.91,80.43A36.93,36.93,0,0,0,485,117.36a12,12,0,1,1-24.08,0,61,61,0,0,1,61-61,12,12,0,0,1,0,24.08Z" transform="translate(-4.44 2.23)"/><path class="cls-4" d="M464.44,108.82a12.06,12.06,0,1,1,0,17.05A12.05,12.05,0,0,1,464.44,108.82Z" transform="translate(-4.44 2.23)"/><path class="cls-6" d="M703.44,461.61a77.18,77.18,0,0,0,77.17-77.19,12.06,12.06,0,1,1,24.12,0A101.3,101.3,0,0,1,703.44,485.73a12.06,12.06,0,0,1,0-24.12Z" transform="translate(-4.44 2.23)"/><path class="cls-4" d="M801.2,392.94a12.06,12.06,0,1,1,0-17.05A12.07,12.07,0,0,1,801.2,392.94Z" transform="translate(-4.44 2.23)"/><path class="cls-4" d="M835.3,392.94a12.06,12.06,0,1,1,0-17.05A12.05,12.05,0,0,1,835.3,392.94Z" transform="translate(-4.44 2.23)"/><path class="cls-5" d="M916,438.21a104.69,104.69,0,0,0-104.67,104.7,12.08,12.08,0,1,1-24.15,0A128.84,128.84,0,0,1,916,414.05a12.08,12.08,0,0,1,0,24.16Z" transform="translate(-4.44 2.23)"/><path class="cls-3" d="M672.09,137.27a12.06,12.06,0,1,1-12.12-12A12.05,12.05,0,0,1,672.09,137.27Z" transform="translate(-4.44 2.23)"/><path class="cls-3" d="M782.33,14.94a12.06,12.06,0,1,1-12.11-12A12.05,12.05,0,0,1,782.33,14.94Z" transform="translate(-4.44 2.23)"/><path class="cls-3" d="M672.09,16A12.06,12.06,0,1,1,660,4,12.05,12.05,0,0,1,672.09,16Z" transform="translate(-4.44 2.23)"/><path class="cls-3" d="M672.09,48A12.06,12.06,0,1,1,660,36,12.05,12.05,0,0,1,672.09,48Z" transform="translate(-4.44 2.23)"/><path class="cls-7" d="M909.79,396.48H861.92a12.07,12.07,0,0,1,0-24.13h47.87a12.07,12.07,0,1,1,0,24.13Z" transform="translate(-4.44 2.23)"/><path class="cls-3" d="M928.06,426.11A12.06,12.06,0,1,1,916,414.05,12.06,12.06,0,0,1,928.06,426.11Z" transform="translate(-4.44 2.23)"/><path class="cls-4" d="M790.23,105.11a20.13,20.13,0,1,0-20.13,20.13,12.08,12.08,0,1,1,0,24.15,44.28,44.28,0,1,1,44.27-44.28,12.07,12.07,0,1,1-24.14,0Z" transform="translate(-4.44 2.23)"/><path class="cls-7" d="M852.29,21.92a20.13,20.13,0,0,0,0,40.26,12.08,12.08,0,0,1,0,24.15,44.28,44.28,0,0,1,0-88.56,12.08,12.08,0,0,1,0,24.15Z" transform="translate(-4.44 2.23)"/><path class="cls-3" d="M783,137.33a12.06,12.06,0,1,1-12-12.06A12.06,12.06,0,0,1,783,137.33Z" transform="translate(-4.44 2.23)"/><path class="cls-4" d="M865,74.27A12.06,12.06,0,1,1,853,62.21,12.07,12.07,0,0,1,865,74.27Z" transform="translate(-4.44 2.23)"/><path class="cls-4" d="M815.41,137.33a12.06,12.06,0,1,1-12.06-12.06A12.07,12.07,0,0,1,815.41,137.33Z" transform="translate(-4.44 2.23)"/><path class="cls-4" d="M847.45,137.33a12.06,12.06,0,1,1-12.06-12.06A12.07,12.07,0,0,1,847.45,137.33Z" transform="translate(-4.44 2.23)"/><path class="cls-3" d="M866.05,41.53A12.06,12.06,0,1,1,854,29.47,12.06,12.06,0,0,1,866.05,41.53Z" transform="translate(-4.44 2.23)"/><path class="cls-3" d="M898.09,41.53A12.06,12.06,0,1,1,886,29.47,12.06,12.06,0,0,1,898.09,41.53Z" transform="translate(-4.44 2.23)"/><path class="cls-3" d="M930.47,41.53a12.06,12.06,0,1,1-12.06-12.06A12.06,12.06,0,0,1,930.47,41.53Z" transform="translate(-4.44 2.23)"/><path class="cls-4" d="M886.38,256.57a12.07,12.07,0,1,1,12-12.07A12.06,12.06,0,0,1,886.38,256.57Z" transform="translate(-4.44 2.23)"/></g></g></g></g></g></g></g></svg>