<svg xmlns="http://www.w3.org/2000/svg" viewBox="0 0 398.15 60.54"><defs><style>.cls-1{isolation:isolate;}.cls-2{fill:#192541;}.cls-3{fill:#334cdc;}.cls-4{fill:#1a2e82;opacity:0.25;mix-blend-mode:multiply;}</style></defs><g class="cls-1"><g id="Layer_2" data-name="Layer 2"><g id="Layer_1-2" data-name="Layer 1"><polygon class="cls-2" points="37.85 31.76 14.6 0 0 0 0 60.54 16.16 60.54 16.16 27.69 40.22 60.54 54.01 60.54 54.01 0 37.85 0 37.85 31.76"/><polygon class="cls-2" points="79.74 37.01 99.62 37.01 99.62 23.33 79.74 23.33 79.74 14.42 101.87 14.42 101.87 0 63.13 0 63.13 60.54 102.61 60.54 102.61 46.08 79.74 46.08 79.74 37.01"/><path class="cls-2" d="M127.49,0,103.71,60.54h17.87l3.35-9.83h21.46l3.34,9.83H168.1L143.79,0ZM129,37.66l6.63-18.76,6.69,18.76Z"/><path class="cls-2" d="M220.08,21.43C220.08,8.77,210.62,0,197.57,0H171.32V60.54H188V42h6.05l9.82,18.52h18.62l-12-22A19.38,19.38,0,0,0,220.08,21.43ZM195.62,28H188V14.82h7.62c4.66,0,7.35,2.77,7.35,6.56S200.28,28,195.62,28Z"/><path class="cls-3" d="M298.55,0,274.77,60.54h17.88L296,50.71h21.46l3.34,9.83h18.36L314.86,0Zm1.51,37.66,6.63-18.76,6.7,18.76Z"/><path class="cls-3" d="M366.89,0h-24.5V60.54h24.5c18.29,0,31.26-12.65,31.26-30.32S385.23,0,366.89,0Zm-.78,45.27h-7v-30h7c9,0,14.94,6,14.94,15S375.07,45.27,366.11,45.27Z"/><path class="cls-3" d="M258.16,0H232.38V27.25c3.75-1.09,8.05-2.19,12.64-3.3l-1.22-3.06a.59.59,0,0,1,.3-.76l.76-.35,7.34-3.43c5.45-2.56,12.4-2.73,17.46-.45a.59.59,0,0,1,.31.75c-2.07,5.14-7.24,9.8-13,11.71a15,15,0,0,1-8,7.72.64.64,0,0,1-.49,0,.38.38,0,0,1-.15-.09.57.57,0,0,1-.2-.58L249.33,31l-.8.27a.67.67,0,0,1-.42,0,.59.59,0,0,1-.32-.32l-.88-2.2A82.88,82.88,0,0,0,231.13,39l0,0c-1,.85-1.93,1.7-2.74,2.5h0c-.4.4-.77.8-1.11,1.18l0,0a10.58,10.58,0,0,0-2,3.1c-.77,2.25,1,3.44,7.23,2.47V60.54H249.1V43.82h9.06c12.87,0,22.43-9.25,22.43-21.95S271,0,258.16,0ZM244.67,18.54l-3.31-2a.61.61,0,0,1-.28-.56.59.59,0,0,1,.38-.5,15,15,0,0,1,10.19-.34Z"/><path class="cls-4" d="M269.66,21.05a16.5,16.5,0,0,0-1.79-.66,22.72,22.72,0,0,1-10.86,8,15,15,0,0,1-8,7.72.64.64,0,0,1-.49,0,.38.38,0,0,1-.15-.09.57.57,0,0,1-.2-.58L249.33,31l-.8.27a.67.67,0,0,1-.42,0,.59.59,0,0,1-.32-.32l-.88-2.2A82.88,82.88,0,0,0,231.13,39l0,0c-1,.85-1.93,1.7-2.74,2.5h0c-.4.4-.77.8-1.11,1.18l0,0a10.58,10.58,0,0,0-2,3.1,2.34,2.34,0,0,0-.11,1.31c2.56-6,14.64-12.53,21-15.51L247.79,36a.58.58,0,0,0,.74.34l.8-.27-1.19,4.45a.58.58,0,0,0,.2.59.38.38,0,0,0,.15.09.6.6,0,0,0,.49,0,15,15,0,0,0,8-7.71c5.72-1.91,10.89-6.57,13-11.71A.61.61,0,0,0,269.66,21.05Z"/></g></g></g></svg>